Coordinates
version=1
nRows=6
nColumns=46
inDegrees=yes

Units are S.I. units (second, meters, Newtons, ...)
Angles are in degrees.

endheader
time	pelvis_tilt	pelvis_list	pelvis_rotation	pelvis_tx	pelvis_ty	pelvis_tz	bb_angle	bb_tx	bb_ty	bb_tz	hip_flexion_r	hip_adduction_r	hip_rotation_r	knee_angle_r	knee_angle_r_beta	ankle_angle_r	subtalar_angle_r	mtp_angle_r	crank_angle_r	hip_flexion_l	hip_adduction_l	hip_rotation_l	knee_angle_l	knee_angle_l_beta	ankle_angle_l	subtalar_angle_l	mtp_angle_l	crank_angle_l	lumbar_extension	lumbar_bending	lumbar_rotation	arm_flex_r	arm_add_r	arm_rot_r	elbow_flex_r	pro_sup_r	wrist_flex_r	wrist_dev_r	arm_flex_l	arm_add_l	arm_rot_l	elbow_flex_l	pro_sup_l	wrist_flex_l	wrist_dev_l
      0.00500000	    -27.93735629	      0.18289746	     -0.95317219	      0.13739136	      1.03823736	     -0.20443973	      0.00000000	      0.50000000	      0.00000000	      0.25000000	     82.82524149	     -1.77541024	      3.82788342	     69.71903467	      1.21682671	     14.33804992	     -4.90941938	      0.00000000	      0.00000000	     63.98456268	     -2.96397259	      5.00904071	     80.50289743	      1.40504062	      0.64576863	    -13.31034899	      0.00000000	      0.00000000	    -38.44665688	     -0.88350698	     -2.21683921	     75.14479288	     -2.85016527	     19.30154079	     46.30826344	     45.39880531	      0.00000000	      0.00000000	     74.51778548	    -11.01990874	     29.17118446	     26.66747810	     36.77975998	      0.00000000	      0.00000000
      0.01000000	    -27.76596711	      0.13287873	     -0.96882657	      0.13741146	      1.03854283	     -0.20436350	      0.00000000	      0.50000000	      0.00000000	      0.25000000	     82.61993370	     -1.73923092	      3.77621616	     69.68821471	      1.21628880	     14.26512153	     -4.99420646	      0.00000000	      0.00000000	     63.80544208	     -3.04375171	      5.03258619	     80.52848148	      1.40548714	      0.89473785	    -12.93142979	      0.00000000	      0.00000000	    -38.64275108	     -0.88538568	     -2.07141119	     75.46907334	     -3.21815963	     20.08581866	     45.83067693	     45.34003985	      0.00000000	      0.00000000	     74.86272953	    -11.24998157	     31.21100712	     26.23241332	     37.43906712	      0.00000000	      0.00000000
      0.01500000	    -27.77165784	      0.12426081	     -0.96578489	      0.13740600	      1.03852600	     -0.20437320	      0.00000000	      0.50000000	      0.00000000	      0.25000000	     82.61862385	     -1.73807379	      3.76992976	     69.68415010	      1.21621786	     14.28348221	     -5.00813875	      0.00000000	      0.00000000	     63.81778227	     -3.05493267	      5.03273354	     80.53098977	      1.40553092	      0.89699343	    -12.90118119	      0.00000000	      0.00000000	    -38.62400565	     -0.86914130	     -2.10510060	     75.50197864	     -2.95402422	     19.72159720	     45.65856514	     44.82538531	      0.00000000	      0.00000000	     74.74422966	    -10.91109923	     29.38925563	     26.22872354	     37.72679365	      0.00000000	      0.00000000
      0.02000000	    -27.75593427	      0.14231366	     -0.87688461	      0.13733687	      1.03852574	     -0.20429530	      0.00000000	      0.50000000	      0.00000000	      0.25000000	     82.60578853	     -1.80242068	      3.79979641	     69.72545708	      1.21693880	     14.25050277	     -5.02590087	      0.00000000	      0.00000000	     63.79590175	     -2.96555054	      5.10070581	     80.50929203	      1.40515222	      0.88977764	    -12.89325849	      0.00000000	      0.00000000	    -38.65350805	     -0.88327445	     -2.16097295	     75.49039376	     -3.01992721	     19.72028056	     45.75708409	     44.85103819	      0.00000000	      0.00000000	     74.80800547	    -10.88343306	     29.50379637	     26.17412164	     37.79060320	      0.00000000	      0.00000000
      0.02500000	    -27.70798340	      0.14027547	     -0.89610084	      0.13727982	      1.03866846	     -0.20415219	      0.00000000	      0.50000000	      0.00000000	      0.25000000	     82.57045868	     -1.80460705	      3.76864960	     69.75372494	      1.21743217	     14.33249183	     -5.03842168	      0.00000000	      0.00000000	     63.75653079	     -3.02676651	      5.07182461	     80.53419548	      1.40558687	      0.99046051	    -12.81982729	      0.00000000	      0.00000000	    -38.74617225	     -0.90363102	     -2.11738209	     75.30441103	     -3.11758173	     19.39894403	     46.39711776	     44.86648320	      0.00000000	      0.00000000	     74.62272272	    -10.98900265	     29.02323540	     26.90530988	     38.00615250	      0.00000000	      0.00000000
      0.03000000	    -27.83539858	      0.07079864	     -0.80342363	      0.13719358	      1.03853521	     -0.20446706	      0.00000000	      0.50000000	      0.00000000	      0.25000000	     82.68403993	     -1.88421618	      3.70058545	     69.74042985	      1.21720012	     14.35771096	     -5.04094438	      0.00000000	      0.00000000	     63.92464760	     -2.94298848	      5.15137962	     80.48588344	      1.40474367	      0.59381293	    -13.23571977	      0.00000000	      0.00000000	    -38.56919821	     -0.68203229	     -2.26266154	     75.36565158	     -2.73143709	     19.40212929	     46.06088635	     44.47331837	      0.00000000	      0.00000000	     74.58568574	    -10.79554420	     27.67497868	     26.35838311	     38.42338879	      0.00000000	      0.00000000
